<?xml version="1.0" standalone="no"?>
<!DOCTYPE svg PUBLIC "-//W3C//DTD SVG 20010904//EN"
 "http://www.w3.org/TR/2001/REC-SVG-20010904/DTD/svg10.dtd">
<svg version="1.0" xmlns="http://www.w3.org/2000/svg"
 width="512.000000pt" height="512.000000pt" viewBox="0 0 512.000000 512.000000"
 preserveAspectRatio="xMidYMid meet">
<metadata>
Created by potrace 1.14, written by Peter Selinger 2001-2017
</metadata>
<g transform="translate(0.000000,512.000000) scale(0.100000,-0.100000)"
fill="#000000" stroke="none">
<path d="M2379 5116 c-2 -2 -40 -6 -83 -10 -44 -4 -82 -8 -85 -10 -3 -2 -31
-7 -61 -11 -30 -3 -75 -11 -100 -17 -25 -5 -56 -12 -70 -14 -52 -10 -264 -74
-269 -81 -5 -7 -24 -12 -58 -15 -7 -1 -13 -5 -13 -10 0 -4 -8 -8 -18 -8 -10 0
-22 -3 -26 -7 -4 -5 -11 -8 -14 -8 -18 -2 -52 -17 -52 -24 0 -4 -6 -8 -12 -8
-20 0 -167 -75 -283 -144 -213 -127 -456 -331 -605 -508 -25 -30 -50 -59 -55
-65 -51 -55 -215 -295 -215 -314 0 -6 -4 -12 -9 -14 -11 -4 -117 -210 -113
-220 1 -5 -2 -8 -8 -8 -6 0 -9 -3 -8 -7 1 -5 -4 -20 -10 -35 -7 -16 -17 -40
-24 -55 -6 -16 -11 -31 -10 -35 1 -5 -3 -8 -10 -8 -6 0 -9 -3 -6 -6 3 -3 -5
-33 -18 -67 -13 -33 -24 -66 -24 -73 0 -7 -5 -25 -12 -41 -12 -30 -14 -36 -21
-73 -3 -14 -8 -32 -11 -40 -3 -8 -7 -26 -10 -40 -2 -14 -11 -59 -20 -100 -33
-164 -40 -246 -41 -470 0 -170 6 -289 19 -365 3 -16 8 -43 10 -60 12 -85 75
-346 85 -355 3 -3 6 -9 7 -15 2 -22 28 -95 33 -95 4 0 8 -12 9 -26 1 -15 6
-32 10 -38 5 -6 15 -27 22 -46 15 -38 97 -210 120 -250 53 -93 138 -224 166
-257 13 -15 24 -32 24 -36 0 -5 6 -14 13 -21 6 -7 28 -33 47 -57 91 -112 316
-339 338 -339 6 0 12 -4 12 -9 0 -14 180 -147 285 -212 121 -75 262 -149 269
-142 3 4 6 1 6 -5 0 -7 3 -11 8 -10 4 1 27 -8 52 -19 46 -21 77 -34 95 -39 6
-1 28 -10 50 -19 22 -9 51 -19 64 -22 14 -2 29 -7 35 -11 6 -3 16 -8 21 -9 94
-26 244 -63 268 -66 18 -3 46 -8 62 -11 120 -23 222 -30 420 -31 210 0 299 7
450 35 28 5 62 12 77 14 52 9 203 48 208 55 3 3 12 7 20 8 36 4 227 70 267 92
10 6 63 32 118 59 84 41 285 156 320 184 74 58 116 88 125 88 5 0 10 4 10 8 0
4 21 24 48 44 62 48 233 213 227 220 -3 2 6 11 20 18 14 7 25 16 25 20 0 7 18
29 73 89 12 13 21 25 20 27 -1 2 9 16 23 31 32 35 161 229 201 303 17 30 44
82 61 115 28 54 40 80 87 190 29 68 64 175 57 175 -4 0 -2 4 4 8 11 7 40 107
51 172 3 19 10 43 15 53 5 10 7 21 4 24 -2 3 -1 15 3 27 8 19 14 53 27 146 14
101 19 189 19 345 0 219 -10 337 -45 505 -6 30 -14 66 -16 80 -3 14 -14 57
-26 95 -22 77 -22 76 -33 123 -4 17 -10 32 -14 32 -4 0 -8 12 -9 27 -1 15 -8
30 -15 35 -6 4 -9 8 -5 8 4 0 -1 19 -12 43 -10 23 -26 60 -36 82 -9 22 -18 42
-19 45 -9 26 -20 46 -29 52 -5 3 13 29 42 57 29 28 52 48 52 45 0 -4 10 6 22
22 13 16 31 38 41 49 32 35 75 118 90 175 30 112 17 169 -54 239 -43 41 -175
115 -191 105 -4 -3 -8 -1 -8 4 0 8 -63 25 -140 37 -19 3 -48 8 -63 11 -28 6
-28 6 -10 24 81 83 97 158 42 201 -46 36 -106 19 -177 -50 -22 -22 -49 -44
-59 -49 -17 -10 -19 -6 -17 54 0 35 -2 64 -5 64 -3 0 -6 15 -7 33 0 37 -10 85
-24 121 -5 15 -6 26 -2 26 4 0 1 4 -5 8 -7 4 -14 17 -16 28 -10 68 -120 206
-177 222 -35 10 -141 8 -165 -2 -24 -11 -23 -11 -57 -20 -16 -5 -28 -12 -28
-17 0 -5 -7 -9 -15 -9 -8 0 -15 -4 -15 -9 0 -5 -9 -12 -20 -16 -20 -6 -156
-125 -143 -125 4 0 -7 -14 -26 -30 l-33 -30 -28 20 c-15 11 -34 20 -42 20 -8
0 -19 5 -25 11 -6 6 -17 11 -24 13 -8 1 -30 9 -49 18 -19 9 -64 26 -100 38
-36 12 -74 26 -85 31 -22 10 -241 64 -295 73 -19 3 -46 8 -60 11 -14 3 -43 7
-65 10 -22 3 -56 8 -75 11 -39 6 -456 15 -461 10z"/>
</g>
</svg>
